/* XPM */
static char * stackandconquer_xpm[] = {
"64 64 455 2",
"  	c None",
". 	c #000000",
"+ 	c #1E0505",
"@ 	c #4A0D0D",
"# 	c #560E0E",
"$ 	c #681212",
"% 	c #6D1212",
"& 	c #540E0E",
"* 	c #390A0A",
"= 	c #220606",
"- 	c #2A0808",
"; 	c #841717",
"> 	c #C62222",
", 	c #DE2727",
"' 	c #EF2929",
") 	c #E02727",
"! 	c #CA2222",
"~ 	c #871818",
"{ 	c #320909",
"] 	c #5F1111",
"^ 	c #CE2424",
"/ 	c #ED2929",
"( 	c #CE2323",
"_ 	c #631010",
": 	c #370A0A",
"< 	c #D02424",
"[ 	c #D32424",
"} 	c #360A0A",
"| 	c #601010",
"1 	c #E92828",
"2 	c #EA2828",
"3 	c #4D0C0C",
"4 	c #EB2828",
"5 	c #510E0E",
"6 	c #060000",
"7 	c #DC2626",
"8 	c #DF2626",
"9 	c #080202",
"0 	c #4D0D0D",
"a 	c #590E0E",
"b 	c #5F1010",
"c 	c #6A1212",
"d 	c #3D0A0A",
"e 	c #4A0C0C",
"f 	c #040000",
"g 	c #D02524",
"h 	c #D42423",
"i 	c #090101",
"j 	c #490D0D",
"k 	c #6A2514",
"l 	c #EB2A28",
"m 	c #EC2A2A",
"n 	c #722716",
"o 	c #560F0F",
"p 	c #0A0202",
"q 	c #2C0808",
"r 	c #350B0B",
"s 	c #440C0C",
"t 	c #4F0D0D",
"u 	c #430B0B",
"v 	c #260606",
"w 	c #0C0202",
"x 	c #681513",
"y 	c #D43D27",
"z 	c #8F3B1D",
"A 	c #EA2C29",
"B 	c #E92E29",
"C 	c #923C1E",
"D 	c #D43C27",
"E 	c #7B1816",
"F 	c #781414",
"G 	c #BB1F1F",
"H 	c #D72626",
"I 	c #E82828",
"J 	c #DD2525",
"K 	c #9E1C1C",
"L 	c #4E0D0D",
"M 	c #6E1E14",
"N 	c #D93C28",
"O 	c #7D351A",
"P 	c #DA3B28",
"Q 	c #DB3928",
"R 	c #79361A",
"S 	c #D83B28",
"T 	c #822218",
"U 	c #611010",
"V 	c #CD2424",
"W 	c #E02626",
"X 	c #9A1B1B",
"Y 	c #621C12",
"Z 	c #E72F29",
"` 	c #A43E21",
" .	c #923A1D",
"..	c #D93C29",
"+.	c #EE2929",
"@.	c #DA3A28",
"#.	c #903D1D",
"$.	c #9F3E21",
"%.	c #E73129",
"&.	c #741F16",
"*.	c #470B0B",
"=.	c #D82525",
"-.	c #951A1A",
";.	c #2A0C08",
">.	c #EC2A29",
",.	c #E63028",
"'.	c #B83D24",
").	c #86371B",
"!.	c #AA3F22",
"~.	c #D63F28",
"{.	c #E62C27",
"].	c #E42E28",
"^.	c #D93D28",
"/.	c #AB4123",
"(.	c #81381B",
"_.	c #B13F23",
":.	c #E43329",
"<.	c #330E08",
"[.	c #831717",
"}.	c #D22424",
"|.	c #1C0505",
"1.	c #0C0904",
"2.	c #BA3122",
"3.	c #DE3528",
"4.	c #C43D25",
"5.	c #9C3A1F",
"6.	c #85381C",
"7.	c #8C381C",
"8.	c #933A1E",
"9.	c #8D3A1D",
"0.	c #94401F",
"a.	c #8E3A1D",
"b.	c #8B371C",
"c.	c #833B1C",
"d.	c #983B1F",
"e.	c #BF3F25",
"f.	c #DD3528",
"g.	c #C03222",
"h.	c #100B05",
"i.	c #7D1616",
"j.	c #100303",
"k.	c #6B4A1A",
"l.	c #44250E",
"m.	c #DF3428",
"n.	c #E03328",
"o.	c #3F210E",
"p.	c #7A551F",
"q.	c #190404",
"r.	c #9F1B1B",
"s.	c #71501B",
"t.	c #ECA43B",
"u.	c #45240E",
"v.	c #D43727",
"w.	c #D63627",
"x.	c #44220F",
"y.	c #E9A23A",
"z.	c #875D21",
"A.	c #200606",
"B.	c #E62727",
"C.	c #070202",
"D.	c #6F4D1B",
"E.	c #FCAF3E",
"F.	c #F2A83B",
"G.	c #614219",
"H.	c #8E2C1B",
"I.	c #E62E29",
"J.	c #E53129",
"K.	c #902E1B",
"L.	c #5C3E17",
"M.	c #F1A83B",
"N.	c #835B20",
"O.	c #280707",
"P.	c #1D0606",
"Q.	c #553B16",
"R.	c #C48930",
"S.	c #4F3012",
"T.	c #852B1A",
"U.	c #892C1A",
"V.	c #4A2E11",
"W.	c #C0862F",
"X.	c #624517",
"Y.	c #0E0101",
"Z.	c #0A0702",
"`.	c #EEA63A",
" +	c #DD9A37",
".+	c #76521D",
"++	c #4B2710",
"@+	c #7A2918",
"#+	c #AF3421",
"$+	c #D03727",
"%+	c #DE3128",
"&+	c #E82928",
"*+	c #E92928",
"=+	c #DD3227",
"-+	c #CD3826",
";+	c #AF3422",
">+	c #7C2918",
",+	c #4A2811",
"'+	c #714F1B",
")+	c #D69635",
"!+	c #F0A63C",
"~+	c #100B03",
"{+	c #BA1F1F",
"]+	c #38260E",
"^+	c #754E1E",
"/+	c #F2A83C",
"(+	c #BC832E",
"_+	c #8A6122",
":+	c #614418",
"<+	c #513614",
"[+	c #523114",
"}+	c #533215",
"|+	c #4D3113",
"1+	c #4E3613",
"2+	c #604318",
"3+	c #885F21",
"4+	c #B9812D",
"5+	c #FBAE3E",
"6+	c #79501D",
"7+	c #422D10",
"8+	c #BA2121",
"9+	c #E72727",
"0+	c #4F0E0E",
"a+	c #310909",
"b+	c #6C491B",
"c+	c #894D1F",
"d+	c #9A6325",
"e+	c #9F6726",
"f+	c #82491E",
"g+	c #80571F",
"h+	c #3A0909",
"i+	c #951919",
"j+	c #CD2323",
"k+	c #E52626",
"l+	c #811717",
"m+	c #DB2525",
"n+	c #350909",
"o+	c #73451A",
"p+	c #915120",
"q+	c #71461B",
"r+	c #F0A63B",
"s+	c #F1A73C",
"t+	c #75481C",
"u+	c #8A4E1F",
"v+	c #86521F",
"w+	c #2E0808",
"x+	c #EC2929",
"y+	c #A11D1D",
"z+	c #A81D1D",
"A+	c #D62424",
"B+	c #751313",
"C+	c #DE2626",
"D+	c #683C18",
"E+	c #D38732",
"F+	c #45230F",
"G+	c #A46A27",
"H+	c #A06425",
"I+	c #42210E",
"J+	c #CF8331",
"K+	c #7D4A1D",
"L+	c #260808",
"M+	c #791515",
"N+	c #BE2121",
"O+	c #E72828",
"P+	c #D82424",
"Q+	c #8A1717",
"R+	c #A41C1C",
"S+	c #371F0C",
"T+	c #C0762D",
"U+	c #4C2812",
"V+	c #75491B",
"W+	c #C2802F",
"X+	c #E8A139",
"Y+	c #EAA139",
"Z+	c #C07E2E",
"`+	c #74481B",
" @	c #BB712B",
".@	c #492B11",
"+@	c #050101",
"@@	c #971919",
"#@	c #CB2323",
"$@	c #E32727",
"%@	c #D92525",
"&@	c #AF1E1E",
"*@	c #7F1616",
"=@	c #AB1E1E",
"-@	c #E42727",
";@	c #E42626",
">@	c #040101",
",@	c #D48332",
"'@	c #F2A73C",
")@	c #A35F25",
"!@	c #542D13",
"~@	c #4C2A12",
"{@	c #6C4219",
"]@	c #8C5921",
"^@	c #A56B27",
"/@	c #B4762B",
"(@	c #B1702A",
"_@	c #AC6E29",
":@	c #A36927",
"<@	c #895621",
"[@	c #663D18",
"}@	c #4D2912",
"|@	c #512A12",
"1@	c #A15F25",
"2@	c #EDA23A",
"3@	c #DB8933",
"4@	c #060201",
"5@	c #0B0101",
"6@	c #E52727",
"7@	c #C82222",
"8@	c #9C1A1A",
"9@	c #861717",
"0@	c #871717",
"a@	c #9D1B1B",
"b@	c #AA1D1D",
"c@	c #A31C1C",
"d@	c #8C1818",
"e@	c #861616",
"f@	c #B21E1E",
"g@	c #911A1A",
"h@	c #0A0101",
"i@	c #691313",
"j@	c #381C0C",
"k@	c #F09F3A",
"l@	c #E19A37",
"m@	c #D48D33",
"n@	c #C47E2F",
"o@	c #BA762D",
"p@	c #D38C33",
"q@	c #E29B37",
"r@	c #F0A03A",
"s@	c #371A0C",
"t@	c #460C0C",
"u@	c #691111",
"v@	c #DD2727",
"w@	c #DC2727",
"x@	c #DC2525",
"y@	c #370B0B",
"z@	c #400B0B",
"A@	c #761414",
"B@	c #3E210E",
"C@	c #EB9838",
"D@	c #EC9938",
"E@	c #41240E",
"F@	c #8B1818",
"G@	c #4C0D0D",
"H@	c #8F1919",
"I@	c #6D1313",
"J@	c #C52323",
"K@	c #300909",
"L@	c #E92929",
"M@	c #3D0B0B",
"N@	c #31110A",
"O@	c #B16B29",
"P@	c #F6AA3D",
"Q@	c #F5A83D",
"R@	c #B46C2A",
"S@	c #D32525",
"T@	c #AC1C1C",
"U@	c #3A0A0A",
"V@	c #E32626",
"W@	c #4B0D0D",
"X@	c #EA2929",
"Y@	c #330909",
"Z@	c #5E0F0F",
"`@	c #3C1C0C",
" #	c #A86628",
".#	c #ED9D39",
"+#	c #EC9D38",
"@#	c #AB6828",
"##	c #33180B",
"$#	c #821616",
"%#	c #300808",
"&#	c #530E0E",
"*#	c #520E0E",
"=#	c #BD2121",
"-#	c #D72525",
";#	c #7F1717",
">#	c #B41F1F",
",#	c #150303",
"'#	c #3A0D0B",
")#	c #512E14",
"!#	c #9C5F25",
"~#	c #D08031",
"{#	c #E89737",
"]#	c #F7AC3D",
"^#	c #F4A83C",
"/#	c #E79537",
"(#	c #D28231",
"_#	c #9D5E25",
":#	c #4D2A12",
"<#	c #340B0A",
"[#	c #190505",
"}#	c #1C0404",
"|#	c #A91D1D",
"1#	c #BF2121",
"2#	c #7E1616",
"3#	c #480D0D",
"4#	c #C72222",
"5#	c #D12424",
"6#	c #931A1A",
"7#	c #440B0B",
"8#	c #300C0A",
"9#	c #421C0D",
"0#	c #4E2811",
"a#	c #472310",
"b#	c #401C0D",
"c#	c #401A0D",
"d#	c #2E0B09",
"e#	c #410C0C",
"f#	c #B71F1F",
"g#	c #991A1A",
"h#	c #050000",
"i#	c #6B1212",
"j#	c #380909",
"k#	c #340909",
"l#	c #450C0C",
"m#	c #4B0C0C",
"n#	c #400A0A",
"o#	c #410A0A",
"p#	c #BB2020",
"q#	c #250606",
"r#	c #7A1616",
"s#	c #981A1A",
"t#	c #E42828",
"u#	c #621111",
"v#	c #3B0B0B",
"w#	c #C52222",
"x#	c #C22121",
"y#	c #020000",
"z#	c #651212",
"A#	c #1D0505",
"B#	c #2F0909",
"C#	c #9B1B1B",
"D#	c #D52424",
"E#	c #D42525",
"F#	c #9C1B1B",
"G#	c #C92323",
"H#	c #821717",
"I#	c #160505",
"J#	c #210606",
"K#	c #5C0F0F",
"L#	c #B31E1E",
"M#	c #CB2222",
"N#	c #B21D1D",
"O#	c #891717",
"P#	c #691212",
"Q#	c #C92222",
"R#	c #CA2323",
"S#	c #C62121",
"T#	c #A71E1E",
"U#	c #7B1616",
"V#	c #0F0303",
"                                                                                                                                ",
"                                                                                                                                ",
"                                                                                                                                ",
"                                                                                                                                ",
"                                                                                                                                ",
"                                                                                                                                ",
"                                                                                                                                ",
"                                                                                                                                ",
"                                                                                                                                ",
"                                                                                                                                ",
"                                                                                                                                ",
"                                                                                                                                ",
"                                                                                                                                ",
"                                                                                                                                ",
"                                                                                                                                ",
"                                                                                                                                ",
"                                                                                                                                ",
"                                                                                                                                ",
"                                                                                                                                ",
"                                                                                                                                ",
"                                                                                                                                ",
"                                                                                                                                ",
"                                                                                                                                ",
"                                                                                                                                ",
"                                                                                                                                ",
"                    . + @ # $ $ % & * = .                                                                                       ",
"              - ; > , ' ' ' ' ' ' ' ' ' ) ! ~ {                                                                                 ",
"          ] ^ / ' ' ' ' ' ' ' ' ' ' ' ' ' ' ' / ( _                                                                             ",
"      : < ' ' ' ' ' ' ' ' ' ' ' ' ' ' ' ' ' ' ' ' ' [ }                                                                         ",
"    | 1 ' ' ' ' ' ' ' ' ' ' ' ' ' ' ' ' ' ' ' ' ' ' ' 2 _                                                                       ",
"  3 1 ' ' ' ' ' ' ' ' ' ' ' ' ' ' ' ' ' ' ' ' ' ' ' ' ' 4 5                                                                     ",
"6 7 ' ' ' ' ' ' ' ' ' ' ' ' ' ' ' ' ' ' ' ' ' ' ' ' ' ' ' 8 9                                                                   ",
"0 ' ' ' ' ' ' ' ' ' ' ' ' ' ' ' ' ' ' ' ' ' ' ' ' ' ' ' ' ' a                                                                   ",
"b ' ' ' ' ' ' ' ' ' ' ' ' ' ' ' ' ' ' ' ' ' ' ' ' ' ' ' ' ' c                                                                   ",
"d ' ' ' ' ' ' ' ' ' ' ' ' ' ' ' ' ' ' ' ' ' ' ' ' ' ' ' ' ' e                                                                   ",
"f g ' ' ' ' ' ' ' ' ' ' ' ' ' ' ' ' ' ' ' ' ' ' ' ' ' ' ' h i                                                                   ",
"j k l ' ' ' ' ' ' ' ' ' ' ' ' ' ' ' ' ' ' ' ' ' ' ' ' ' m n o                         . p q r s t u v w . .                     ",
"x y z A ' ' ' ' ' ' ' ' ' ' ' ' ' ' ' ' ' ' ' ' ' ' ' B C D E                 . = F G H I ' ' ' ' ' ' / J ^ K L 6               ",
"M ' N O P ' ' ' ' ' ' ' ' ' ' ' ' ' ' ' ' ' ' ' ' ' Q R S ' T             f U V 4 ' ' ' ' ' ' ' ' ' ' ' ' ' ' ' W X =           ",
"Y ' ' Z `  ...+.' ' ' ' ' ' ' ' ' ' ' ' ' ' ' ' @.#.$.%.' ' &.          *.=.' ' ' ' ' ' ' ' ' ' ' ' ' ' ' ' ' ' ' ' 1 -.p       ",
";.>.' ' ' ,.'.).!.~.{.' ' ' ' ' ' ' ' ' ].^./.(._.:.' ' ' +.<.      . [.4 ' ' ' ' ' ' ' ' ' ' ' ' ' ' ' ' ' ' ' ' ' ' ' }.|.    ",
"1.2.' ' ' ' ' ' 3.4.5.6.7.8.9.0.a.8.b.c.d.e.f.' ' ' ' ' ' g.h.      i.+.' ' ' ' ' ' ' ' ' ' ' ' ' ' ' ' ' ' ' ' ' ' ' ' ' =.j.  ",
"k.l.m.' ' ' ' ' ' ' ' ' ' ' ' 8 ' ' ' ' ' ' ' ' ' ' ' ' n.o.p.    q.2 ' ' ' ' ' ' ' ' ' ' ' ' ' ' ' ' ' ' ' ' ' ' ' ' ' ' ' r.  ",
"s.t.u.v.' ' ' ' ' ' ' ' ' ' ' ' ' ' ' ' ' ' ' ' ' ' ' w.x.y.z.    A.' ' ' ' ' ' ' ' ' ' ' ' ' ' ' ' ' ' ' ' ' ' ' ' ' ' ' ' B.C.",
"D.E.F.G.H.I.' ' ' ' ' ' ' ' ' ' ' ' ' ' ' ' ' ' ' J.K.L.M.E.N.    O.' ' ' ' ' ' ' ' ' ' ' ' ' ' ' ' ' ' ' ' ' ' ' ' ' ' ' ' ' P.",
"Q.E.E.E.R.S.T.w./ ' ' ' ' ' ' ' ' ' ' ' ' ' >.w.U.V.W.E.E.E.X.    Y.' ' ' ' ' ' ' ' ' ' ' ' ' ' ' ' ' ' ' ' ' ' ' ' ' ' ' ' 1 i ",
"Z.`.E.E.E.E. +.+++@+#+$+%+&+' ' ' *+=+-+;+>+,+'+)+E.E.E.E.!+~+    f ' ' ' ' ' ' ' ' ' ' ' ' ' ' ' ' ' ' ' ' ' ' ' ' ' ' ' ' {+. ",
"]+^+E.E.E.E.E.E.E./+(+_+:+<+[+}+|+1+2+3+4+`.E.E.E.E.E.E.5+6+7+    { 8+' ' ' ' ' ' ' ' ' ' ' ' ' ' ' ' ' ' ' ' ' ' ' ' ' ' 9+0+a+",
"b+c+d+5+E.E.E.E.E.E.E.E.E.E.E.E.E.E.E.E.E.E.E.E.E.E.E.5+e+f+g+    h+i+j+' ' ' ' ' ' ' ' ' ' ' ' ' ' ' ' ' ' ' ' ' ' ' ' k+l+m+n+",
"o+E.p+q+r+E.E.E.E.E.E.E.E.E.E.E.E.E.E.E.E.E.E.E.E.E.s+t+u+E.v+    w+x+y+z+I ' ' ' ' ' ' ' ' ' ' ' ' ' ' ' ' ' ' ' ' ' A+B+C+' q ",
"D+E.E.E+F+G+`.E.E.E.E.E.E.E.E.E.E.E.E.E.E.E.E.E.r+H+I+J+E.E.K+    L+' ' }.M+N+O+' ' ' ' ' ' ' ' ' ' ' ' ' ' ' ' ' P+Q+R+1 ' ' L+",
"S+5+E.E.E.T+U+V+W+X+E.E.E.E.E.E.E.E.E.E.E.Y+Z+`+,+ @E.E.E.E..@    +@' ' ' 4 < Q+@@#@$@' ' ' ' ' ' ' ' ' ' 2 %@&@*@=@-@' ' ' ;@>@",
"+@,@E.E.E.E.E.'@)@!@~@{@]@^@/@(@_@:@<@[@}@|@1@2@E.E.E.E.E.3@4@    5@O+' ' ' ' ' 6@7@8@9@0@a@z+&@&@b@c@d@[.e@f@%@x+' ' ' ' ' g@h@",
"i@j@k@E.E.E.E.E.E.E.E.E.l@m@n@o@n@p@q@E.E.E.E.E.E.E.E.E.r@s@M+    t@u@/ ' ' ' ' ' ' ' ' 4 8 ) v@w@x@) 6@' ' ' ' ' ' ' ' ' ^ y@z@",
"A@^ B@C@E.E.E.E.E.E.E.E.E.E.E.E.E.E.E.E.E.E.E.E.E.E.E.D@E@#@F@    G@H@I@I ' ' ' ' ' ' ' ' ' ' ' ' ' ' ' ' ' ' ' ' ' ' ' J@K@L@M@",
"I@' A+N@O@P@E.E.E.E.E.E.E.E.E.E.E.E.E.E.E.E.E.E.E.Q@R@N@S@' ;     u ' T@U@#@' ' ' ' ' ' ' ' ' ' ' ' ' ' ' ' ' ' ' ' V@i.W@X@' Y@",
"Z@' ' ' 9@`@ #.#E.E.E.E.E.E.E.E.E.E.E.E.E.E.E.+#@###$#+.' ' I@    %#' ' B.&#*#=#O+' ' ' ' ' ' ' ' ' ' ' ' ' ' ' -#;#q >#' ' x+|.",
",#I ' ' ' ' z+'#)#!#~#{#]#E.E.E.E.E.^#/#(#_#:#<#r.' ' ' ' 1 [#    }#' ' ' ' I l+{ U |#j+8 ' ' ' ' ' ' -@-#1#2#U@3#4#' ' ' ' 5#. ",
"  6#' ' ' ' ' ' ' 1#i.7#8#9#0#a#b#c#d#e#F f#' ' ' ' ' ' ' g#      h#}.' ' ' ' ' ' X@|#i#j#k#l#m#n#o#h+q 0+Q+^ ' ' ' ' ' ' 4 W@  ",
"    p#' ' ' ' ' ' ' ' ' ' ' ' ' ' ' ' ' ' ' ' ' ' ' ' ' =#f         q#x@' ' ' ' ' ' ' ' ' ' ' ' ' ' ' ' ' ' ' ' ' ' ' ' x+r#    ",
"      s#4 ' ' ' ' ' ' ' ' ' ' ' ' ' ' ' ' ' ' ' ' ' x+a@              A.> ' ' ' ' ' ' ' ' ' ' ' ' ' ' ' ' ' ' ' ' ' ' t#u#      ",
"        v#w#x+' ' ' ' ' ' ' ' ' ' ' ' ' ' ' ' ' x+x#v#                  y#z#%@' ' ' ' ' ' ' ' ' ' ' ' ' ' ' ' ' ' O+c@A#        ",
"            B#C#D#x+' ' ' ' ' ' ' ' ' ' ' x+E#F#Y@                          y#L f@C+' ' ' ' ' ' ' ' ' ' ' ' O+G#H#I#            ",
"                  J#K#H@L#4##@j+#@M#N#O#] J#                                      . n+P#C#{+Q##@j+R#S#T#U#& V#.                 "};
