<?xml version="1.0" encoding="UTF-8" standalone="no"?>
<!-- Created with Inkscape (http://www.inkscape.org/) -->

<svg
   xmlns:dc="http://purl.org/dc/elements/1.1/"
   xmlns:cc="http://creativecommons.org/ns#"
   xmlns:rdf="http://www.w3.org/1999/02/22-rdf-syntax-ns#"
   xmlns:svg="http://www.w3.org/2000/svg"
   xmlns="http://www.w3.org/2000/svg"
   xmlns:sodipodi="http://sodipodi.sourceforge.net/DTD/sodipodi-0.dtd"
   xmlns:inkscape="http://www.inkscape.org/namespaces/inkscape"
   id="svg1923"
   sodipodi:version="0.32"
   inkscape:version="0.92.5 (2060ec1f9f, 2020-04-08)"
   width="50"
   height="36.395069"
   version="1.0"
   sodipodi:docname="stone.svg">
  <metadata
     id="metadata1928">
    <rdf:RDF>
      <cc:Work
         rdf:about="">
        <dc:format>image/svg+xml</dc:format>
        <dc:type
           rdf:resource="http://purl.org/dc/dcmitype/StillImage" />
        <dc:title></dc:title>
        <cc:license
           rdf:resource="http://artlibre.org/licence/lal" />
      </cc:Work>
      <cc:License
         rdf:about="http://artlibre.org/licence/lal">
        <cc:permits
           rdf:resource="http://creativecommons.org/ns#Reproduction" />
        <cc:permits
           rdf:resource="http://creativecommons.org/ns#Distribution" />
        <cc:permits
           rdf:resource="http://creativecommons.org/ns#DerivativeWorks" />
        <cc:requires
           rdf:resource="http://creativecommons.org/ns#ShareAlike" />
        <cc:requires
           rdf:resource="http://creativecommons.org/ns#Notice" />
        <cc:requires
           rdf:resource="http://creativecommons.org/ns#Attribution" />
      </cc:License>
    </rdf:RDF>
  </metadata>
  <defs
     id="defs1926" />
  <sodipodi:namedview
     inkscape:window-height="1122"
     inkscape:window-width="1912"
     inkscape:pageshadow="2"
     inkscape:pageopacity="0.0"
     guidetolerance="10.0"
     gridtolerance="10.0"
     objecttolerance="10.0"
     borderopacity="1.0"
     bordercolor="#666666"
     pagecolor="#ffffff"
     id="base"
     inkscape:zoom="7.8849675"
     inkscape:cx="22.402932"
     inkscape:cy="29.356028"
     inkscape:window-x="0"
     inkscape:window-y="0"
     inkscape:current-layer="svg1923"
     showgrid="false"
     inkscape:window-maximized="1"
     inkscape:snap-page="true"
     fit-margin-top="0"
     fit-margin-left="0"
     fit-margin-right="0"
     fit-margin-bottom="0" />
  <g
     id="Stone1"
     transform="matrix(1.3898789,0,0,1.3898789,3.5636113e-8,6.4978526e-6)"
     style="fill:#ff0000">
    <g
       transform="translate(-9.5562144,-307.07547)"
       id="g4591"
       style="fill:#ff0000">
      <path
         style="fill:#ff0000;fill-opacity:1;stroke:#000000;stroke-width:0.64365965;stroke-opacity:1"
         d="m 9.8780442,316.71757 v 6.70392 c 0,5.25661 7.9090448,9.51793 17.6653488,9.51793 9.756303,0 17.665348,-4.26132 17.665348,-9.51793 v -6.65908"
         id="path4402-6"
         inkscape:connector-curvature="0"
         sodipodi:nodetypes="cscsc" />
      <path
         inkscape:connector-curvature="0"
         style="fill:#ff0000;fill-opacity:1;stroke:#000000;stroke-width:0.64356935;stroke-miterlimit:4;stroke-dasharray:none;stroke-opacity:1"
         d="m 45.208696,316.91517 a 17.665349,9.5179253 0 0 1 -17.665349,9.51793 17.665349,9.5179253 0 0 1 -17.6653479,-9.51793 17.665349,9.5179253 0 0 1 17.6653479,-9.51792 17.665349,9.5179253 0 0 1 17.665349,9.51792 z"
         id="path4402-0-0" />
    </g>
    <path
       inkscape:connector-curvature="0"
       id="path4742"
       d="M 16.125222,25.447669 C 8.9422463,24.947175 3.2612976,22.388344 1.3439308,18.789833 0.77782389,17.727365 0.70349245,17.270377 0.70196019,14.843013 l -0.001326,-2.099876 0.37126041,0.530514 c 2.2206043,3.173145 6.6782708,5.329813 12.8113814,6.198287 1.640121,0.232248 6.553208,0.230094 8.205522,-0.0036 3.692017,-0.522172 7.013315,-1.595946 9.326495,-3.015253 1.468237,-0.900872 2.793719,-2.118615 3.526095,-3.239486 l 0.37489,-0.573752 -6.77e-4,1.927325 c -3.73e-4,1.060029 -0.04322,2.189633 -0.09521,2.510232 -0.206071,1.270678 -0.793557,2.315702 -1.966702,3.498388 -2.6357,2.657136 -7.351017,4.412009 -13.003286,4.839359 -1.114173,0.08424 -3.152297,0.100305 -4.12518,0.03252 z"
       style="fill:#ff0000;fill-opacity:1;stroke:#000000;stroke-width:0.07210098;stroke-miterlimit:4;stroke-dasharray:none;stroke-opacity:1" />
    <path
       inkscape:connector-curvature="0"
       id="path4744"
       d="M 15.04012,18.861453 C 10.627737,18.451715 6.5328673,17.072495 3.8674129,15.098302 3.0557701,14.497152 1.9090827,13.281477 1.5077029,12.596627 0.97948711,11.695364 0.72195282,10.815374 0.72157578,9.9104467 0.72117754,8.9546409 0.83905726,8.424889 1.2361128,7.5981156 2.85049,4.2365602 7.9055903,1.6674728 14.457214,0.87892859 c 2.405597,-0.28953422 6.029347,-0.20406201 8.519394,0.20094421 6.455761,1.0500293 11.229444,4.0226017 12.153232,7.5678176 0.199652,0.7662053 0.139903,2.0655356 -0.12986,2.8239886 -0.321722,0.904539 -0.884899,1.74382 -1.748972,2.606427 -2.549272,2.544944 -7.128486,4.309562 -12.426668,4.788665 -1.190657,0.107668 -4.601265,0.104533 -5.78422,-0.0053 z"
       style="fill:#ff0000;fill-opacity:1;stroke:#000000;stroke-width:0.07210098;stroke-miterlimit:4;stroke-dasharray:none;stroke-opacity:1" />
  </g>
</svg>
