<?xml version="1.0" encoding="UTF-8" standalone="no"?>
<svg
   xmlns:dc="http://purl.org/dc/elements/1.1/"
   xmlns:cc="http://creativecommons.org/ns#"
   xmlns:rdf="http://www.w3.org/1999/02/22-rdf-syntax-ns#"
   xmlns:svg="http://www.w3.org/2000/svg"
   xmlns="http://www.w3.org/2000/svg"
   xmlns:sodipodi="http://sodipodi.sourceforge.net/DTD/sodipodi-0.dtd"
   xmlns:inkscape="http://www.inkscape.org/namespaces/inkscape"
   version="1.1"
   id="Capa_1"
   x="0px"
   y="0px"
   viewBox="0 0 266.21002 350"
   xml:space="preserve"
   inkscape:version="1.0.1 (3bc2e813f5, 2020-09-07, custom)"
   sodipodi:docname="user.svg"
   width="266.21002"
   height="350"><metadata
     id="metadata47"><rdf:RDF><cc:Work
         rdf:about=""><dc:format>image/svg+xml</dc:format><dc:type
           rdf:resource="http://purl.org/dc/dcmitype/StillImage" /><dc:title></dc:title></cc:Work></rdf:RDF></metadata><defs
     id="defs45" /><sodipodi:namedview
     pagecolor="#ffffff"
     bordercolor="#666666"
     borderopacity="1"
     objecttolerance="10"
     gridtolerance="10"
     guidetolerance="10"
     inkscape:pageopacity="0"
     inkscape:pageshadow="2"
     inkscape:window-width="1077"
     inkscape:window-height="644"
     id="namedview43"
     showgrid="false"
     inkscape:zoom="0.67428571"
     inkscape:cx="152.78271"
     inkscape:cy="175"
     inkscape:window-x="676"
     inkscape:window-y="151"
     inkscape:window-maximized="0"
     inkscape:current-layer="Capa_1"
     inkscape:document-rotation="0"
     fit-margin-top="0"
     fit-margin-left="0"
     fit-margin-right="0"
     fit-margin-bottom="0" /><g
     id="g3"
     inkscape:export-xdpi="3.97"
     inkscape:export-ydpi="3.97"
     transform="translate(-41.895144)"><path
       d="m 175,171.173 c 38.914,0 70.463,-38.318 70.463,-85.586 C 245.463,38.318 235.105,0 175,0 c -60.105,0 -70.465,38.318 -70.465,85.587 0,47.268 31.549,85.586 70.465,85.586 z"
       id="path5" /><path
       d="m 41.909,301.853 c -0.012,-2.882 -0.024,-0.812 0,0 z"
       id="path7" /><path
       d="m 308.085,304.104 c 0.038,-0.789 0.013,-5.474 0,0 z"
       id="path9" /><path
       d="M 307.935,298.397 C 306.63,216.055 295.876,192.592 213.583,177.74 c 0,0 -11.584,14.761 -38.584,14.761 -27,0 -38.586,-14.761 -38.586,-14.761 -81.395,14.69 -92.803,37.805 -94.303,117.982 -0.123,6.547 -0.18,6.891 -0.202,6.131 0.005,1.424 0.011,4.058 0.011,8.651 0,0 19.592,39.496 133.08,39.496 113.486,0 133.08,-39.496 133.08,-39.496 0,-2.951 0.002,-5.003 0.005,-6.399 -0.022,0.47 -0.066,-0.441 -0.149,-5.708 z"
       id="path11" /></g><g
     id="g13"
     transform="translate(-41.895144)" /><g
     id="g15"
     transform="translate(-41.895144)" /><g
     id="g17"
     transform="translate(-41.895144)" /><g
     id="g19"
     transform="translate(-41.895144)" /><g
     id="g21"
     transform="translate(-41.895144)" /><g
     id="g23"
     transform="translate(-41.895144)" /><g
     id="g25"
     transform="translate(-41.895144)" /><g
     id="g27"
     transform="translate(-41.895144)" /><g
     id="g29"
     transform="translate(-41.895144)" /><g
     id="g31"
     transform="translate(-41.895144)" /><g
     id="g33"
     transform="translate(-41.895144)" /><g
     id="g35"
     transform="translate(-41.895144)" /><g
     id="g37"
     transform="translate(-41.895144)" /><g
     id="g39"
     transform="translate(-41.895144)" /><g
     id="g41"
     transform="translate(-41.895144)" /></svg>
