<?xml version="1.0" encoding="UTF-8" standalone="no"?>
<!-- Created with Inkscape (http://www.inkscape.org/) -->

<svg
   xmlns:dc="http://purl.org/dc/elements/1.1/"
   xmlns:cc="http://creativecommons.org/ns#"
   xmlns:rdf="http://www.w3.org/1999/02/22-rdf-syntax-ns#"
   xmlns:svg="http://www.w3.org/2000/svg"
   xmlns="http://www.w3.org/2000/svg"
   xmlns:sodipodi="http://sodipodi.sourceforge.net/DTD/sodipodi-0.dtd"
   xmlns:inkscape="http://www.inkscape.org/namespaces/inkscape"
   width="19.45384mm"
   height="27.286173mm"
   viewBox="0 0 68.93093 96.683289"
   id="svg7361"
   version="1.1"
   inkscape:version="0.91 r13725"
   sodipodi:docname="win.svg">
  <defs
     id="defs7363" />
  <sodipodi:namedview
     id="base"
     pagecolor="#ffffff"
     bordercolor="#666666"
     borderopacity="1.0"
     inkscape:pageopacity="0.0"
     inkscape:pageshadow="2"
     inkscape:zoom="3.959798"
     inkscape:cx="1.6175354"
     inkscape:cy="47.28495"
     inkscape:document-units="px"
     inkscape:current-layer="layer1"
     showgrid="false"
     fit-margin-top="0"
     fit-margin-left="0"
     fit-margin-right="0"
     fit-margin-bottom="0"
     inkscape:window-width="1366"
     inkscape:window-height="715"
     inkscape:window-x="0"
     inkscape:window-y="24"
     inkscape:window-maximized="1" />
  <metadata
     id="metadata7366">
    <rdf:RDF>
      <cc:Work
         rdf:about="">
        <dc:format>image/svg+xml</dc:format>
        <dc:type
           rdf:resource="http://purl.org/dc/dcmitype/StillImage" />
        <dc:title></dc:title>
      </cc:Work>
    </rdf:RDF>
  </metadata>
  <g
     inkscape:label="Ebene 1"
     inkscape:groupmode="layer"
     id="layer1"
     transform="translate(-197.91962,-419.48973)">
    <g
       id="g7396"
       transform="matrix(1.6301994,0,0,1.6301994,-124.72883,-325.29194)">
      <path
         inkscape:connector-curvature="0"
         style="opacity:1;fill:#323232;fill-opacity:1;stroke:none;stroke-width:0.70866144;stroke-miterlimit:4;stroke-dasharray:none;stroke-opacity:1"
         d="m 197.91962,458.84061 0,25.35678 c 0,6.35295 5.84907,14.61254 13.91616,16.67564 2.31917,1.33912 1.86096,4.12234 0,5.04542 -7.96043,0.75029 -13.64854,2.6535 -13.64854,4.94085 0,2.9355 9.34905,5.31372 20.87425,5.31373 11.52515,0 20.8742,-2.37823 20.87425,-5.31373 0,-2.28735 -5.68812,-4.19056 -13.64855,-4.94085 -3.16629,-1.55814 -2.80122,-4.31814 0,-5.04542 8.11475,-2.04585 13.91617,-10.29897 13.91617,-16.67564 l 0,-25.35678 c -0.9958,-2.38236 -42.0079,-2.87349 -42.28374,0 z"
         id="rect5235"
         sodipodi:nodetypes="ccccsssccccc" />
      <path
         inkscape:transform-center-y="-1.0972787"
         inkscape:transform-center-x="0.17234524"
         d="m 226.78635,486.45731 -7.56046,-4.00094 -7.68238,3.76154 1.46881,-8.42678 -5.95143,-6.144 8.46824,-1.2071 4.00419,-7.55874 3.76485,7.68076 8.42616,1.47243 -6.14144,5.95407 z"
         inkscape:randomized="0"
         inkscape:rounded="0"
         inkscape:flatsided="false"
         sodipodi:arg2="1.5865003"
         sodipodi:arg1="0.95818181"
         sodipodi:r2="6.6095557"
         sodipodi:r1="12.967933"
         sodipodi:cy="475.84763"
         sodipodi:cx="219.32968"
         sodipodi:sides="5"
         id="path7394"
         style="fill:#f2f2f2;fill-opacity:1;stroke:#f2f2f2;stroke-width:0.80400002;stroke-miterlimit:4;stroke-dasharray:none;stroke-opacity:1"
         sodipodi:type="star" />
    </g>
  </g>
</svg>
